# xmcd
#
# Track frame offsets:
#	150
#	13058
#	25114
#	37829
#	50869
#	62931
#	74459
#	87271
#	101053
#	113353
#	124523
#	136559
#
# Disc length: 1985 seconds
# Revision: 0
# Processed by: cddbd v1.5.2PL0 Copyright (c) Steve Scherf et al.
# Submitted via: dBpowerAMP V12.0
#
DISCID=9807bf0c
DTITLE=Stevie Wonder - Down to Earth
DYEAR=1966
DGENRE=R&B
TTITLE0=A Place In The Sun
TTITLE1=Bang Bang
TTITLE2=Down To Earth
TTITLE3=Thank You Love
TTITLE4=Be Cool, Be Calm (And Keep Yourself Together)
TTITLE5=Sylvia
TTITLE6=My World Is Empty Without You
TTITLE7=The Lonesome Road
TTITLE8=Angel Baby (Don't You Ever Leave Me)
TTITLE9=Mr. Tambourine Man
TTITLE10=Sixteen Tons
TTITLE11=Hey Love
EXTD=
EXTT0=
EXTT1=
EXTT2=
EXTT3=
EXTT4=
EXTT5=
EXTT6=
EXTT7=
EXTT8=
EXTT9=
EXTT10=
EXTT11=
PLAYORDER=
